<svg version="1.1" id="Layer_1" xmlns="http://www.w3.org/2000/svg" xmlns:xlink="http://www.w3.org/1999/xlink" x="0px" y="0px"
	 width="100%" viewBox="0 0 512 512" enable-background="new 0 0 512 512" xml:space="preserve">
<path fill="#000000" opacity="1.000000" stroke="none" 
	d="
M512.770874,49.679604 
	C513.000000,55.688042 513.000000,61.376083 513.000000,67.532059 
	C510.152466,83.379730 500.372650,92.597343 486.021606,96.993942 
	C477.983521,99.456497 469.515198,99.304588 461.485107,96.223152 
	C458.018585,94.892906 455.559113,95.373993 453.070557,98.112183 
	C449.712585,101.806976 446.042358,105.217987 442.511261,108.755898 
	C437.271759,114.005516 437.243530,114.045776 443.231781,118.796310 
	C457.349701,129.996246 469.012512,143.344025 478.069672,158.906570 
	C489.543823,178.622208 496.109253,199.799164 498.483734,222.601089 
	C500.889862,245.706863 495.263000,266.803955 485.727325,287.358124 
	C473.338867,314.061523 455.878784,337.306702 436.844818,359.504608 
	C425.895294,372.274261 414.650513,384.763672 402.686707,396.597961 
	C398.419067,400.819427 398.430359,401.145721 402.640656,405.361908 
	C424.421570,427.173218 446.234772,448.952301 468.014404,470.764923 
	C471.211212,473.966553 474.216217,477.206604 474.283295,482.254578 
	C474.343231,486.768402 473.285797,490.641541 469.157318,492.867950 
	C465.103607,495.054016 460.793945,494.879181 456.687317,492.835632 
	C453.970367,491.483582 451.938873,489.204742 449.817230,487.083069 
	C428.021271,465.286743 406.227997,443.487732 384.426086,421.697357 
	C380.584839,417.858124 380.621674,417.938110 376.585876,421.648376 
	C356.967194,439.684601 336.890076,457.223999 315.953003,473.688080 
	C286.367737,496.952759 253.677872,500.383514 218.986465,486.675842 
	C211.201218,483.599609 204.231812,478.884918 197.784668,473.587128 
	C179.647598,458.683472 161.416519,443.880402 144.393707,427.678131 
	C141.978806,425.379669 139.023804,423.675598 136.883102,421.101562 
	C134.421524,418.141663 132.460831,418.666626 129.951965,421.230621 
	C120.513626,430.876343 110.908897,440.359344 101.363930,449.900726 
	C98.064445,453.198975 94.808662,456.542114 91.454033,459.783783 
	C83.889404,467.093628 76.022186,468.272583 70.837708,462.928223 
	C65.775681,457.710083 66.914818,449.983215 74.118271,442.671906 
	C86.279610,430.328400 98.605453,418.147552 110.847092,405.883270 
	C115.715569,401.005798 115.689362,401.012024 110.820343,396.080688 
	C85.614563,370.552185 61.828079,343.827209 42.518330,313.448730 
	C30.383392,294.357819 20.679581,274.181824 16.355499,251.713867 
	C13.694582,237.887726 14.896182,224.171387 17.168285,210.520996 
	C22.357107,179.347458 36.312828,152.509369 58.284710,129.898224 
	C62.435574,125.626617 66.985214,121.666222 71.723854,117.967903 
	C76.636314,114.133911 76.577492,113.891472 72.360054,109.633621 
	C68.607971,105.845596 64.667412,102.230087 61.105011,98.273033 
	C58.477295,95.354218 55.946964,95.110298 52.263504,96.280510 
	C34.161575,102.031380 16.548944,96.305962 6.278091,81.482124 
	C3.566764,77.568886 1.637910,73.421127 1.223539,68.295929 
	C1.000000,62.311958 1.000000,56.623920 1.000000,50.467941 
	C3.759313,34.566437 13.454152,24.921947 27.914688,20.982912 
	C57.570648,12.904666 79.148270,36.352196 78.382149,57.838802 
	C78.191162,63.195217 78.273926,68.511246 76.029144,73.519485 
	C74.834930,76.183861 75.623505,78.280624 77.616570,80.255394 
	C83.535965,86.120453 89.476112,91.967651 95.271957,97.953575 
	C97.578308,100.335571 99.905846,100.876625 102.870491,99.443275 
	C114.229126,93.951584 126.296623,90.773415 138.719574,89.014404 
	C165.167084,85.269608 190.890182,88.015106 215.622345,98.382408 
	C229.551224,104.221169 242.301849,112.027367 253.577026,122.131607 
	C256.052460,124.349960 258.172821,124.112839 260.586639,121.996452 
	C283.113342,102.245430 309.482666,90.994133 339.136810,88.103065 
	C357.268341,86.335365 375.435547,87.312996 393.072540,92.797569 
	C399.114044,94.676308 405.252747,96.281921 410.870300,99.320885 
	C413.938599,100.980782 416.434021,100.367065 418.885956,97.810493 
	C424.422058,92.038139 430.072754,86.367332 435.857483,80.844864 
	C438.551239,78.273247 438.733643,75.799507 437.646667,72.351494 
	C430.167633,48.627163 442.491486,26.943995 463.647644,21.051786 
	C482.955719,15.674271 501.142242,23.201355 510.555847,41.173431 
	C511.907562,43.754044 512.238770,46.543980 512.770874,49.679604 
z"/>
<path fill="#FFFFFF" opacity="1.000000" stroke="none" 
	d="
M1.000000,68.468658 
	C3.717443,74.076538 6.085950,80.308548 10.775617,85.318504 
	C21.796633,97.092224 39.391541,100.447540 54.238922,94.222122 
	C56.346886,93.338264 57.748226,92.997551 59.621506,95.003525 
	C64.962822,100.723198 70.508041,106.268921 76.225632,111.612839 
	C78.583519,113.816635 77.896736,115.101440 75.852493,116.620872 
	C51.776283,134.516113 34.761761,157.535217 24.912964,185.948242 
	C20.481956,198.731369 18.241867,211.765198 16.779572,225.210220 
	C14.289116,248.108612 20.891695,268.647888 30.334339,288.798981 
	C40.194016,309.840057 53.562672,328.569733 68.052940,346.585541 
	C77.004555,357.715118 86.499275,368.346680 96.133133,378.893188 
	C102.285484,385.628326 108.736496,392.037781 115.128082,398.513519 
	C117.205307,400.618103 116.947624,401.650848 115.004227,403.570892 
	C101.492004,416.920685 88.072357,430.364716 74.691246,443.846222 
	C71.591507,446.969299 69.070808,450.253784 68.867462,455.207428 
	C68.565399,462.565857 76.859421,467.849304 84.373772,463.803558 
	C86.623474,462.592285 88.633209,460.790558 90.464127,458.969086 
	C104.756950,444.750031 118.979332,430.460175 133.331024,416.084503 
	C142.105530,424.099304 150.575165,432.333588 159.579376,439.934662 
	C170.917450,449.505859 182.167236,459.185730 193.717941,468.518829 
	C201.072021,474.461060 208.452347,480.215698 216.902695,484.343384 
	C234.085739,492.736633 252.226593,494.637878 271.119080,492.108124 
	C289.714233,489.618256 305.208984,481.278107 319.325256,469.311035 
	C336.439911,454.802063 353.976562,440.803650 370.321228,425.385223 
	C373.647156,422.247803 377.091309,419.162842 380.502014,416.068665 
	C404.683380,440.234283 428.839600,464.383850 453.008911,488.520325 
	C457.530548,493.035828 464.290771,494.318817 468.459625,492.097229 
	C474.320801,488.973816 474.860840,479.032745 468.906799,473.291443 
	C457.274445,462.074646 445.992645,450.494263 434.565002,439.065125 
	C422.783600,427.282196 411.053711,415.446869 399.170685,403.767334 
	C397.067505,401.700165 396.727722,400.635498 399.031342,398.336365 
	C407.711853,389.672913 416.396149,380.982391 424.561584,371.839844 
	C444.906708,349.060272 464.130005,325.408630 478.904053,298.481720 
	C487.289917,283.197876 493.566559,267.087311 496.894012,249.979172 
	C499.434540,236.917252 497.965302,223.735367 495.840149,210.782669 
	C493.066193,193.875809 487.311768,177.863846 478.971802,162.851425 
	C473.679871,153.325623 467.279938,144.612961 460.052979,136.421234 
	C453.421509,128.904480 446.030487,122.351120 437.980774,116.458038 
	C436.169617,115.132118 435.356964,113.890694 437.581329,111.798897 
	C443.404358,106.322830 449.064026,100.660156 454.551971,94.848213 
	C456.279358,93.018822 457.559967,93.177994 459.570099,94.038811 
	C481.932404,103.615295 506.747955,91.350548 512.632690,68.114594 
	C513.000000,214.787491 512.987122,361.574982 513.078003,508.362427 
	C513.080139,511.859222 512.695435,513.116028 508.640228,513.112854 
	C340.859375,512.981079 173.078430,512.987610 5.297529,513.085999 
	C1.825134,513.088013 0.889639,512.539673 0.892855,508.800049 
	C1.018957,362.179230 1.000000,215.558258 1.000000,68.468658 
z"/>
<path fill="#FFFFFF" opacity="1.000000" stroke="none" 
	d="
M513.000000,49.531342 
	C510.057220,43.285324 507.320587,36.495399 501.807190,31.262699 
	C491.588379,21.564247 479.215057,18.757820 466.050598,21.658546 
	C450.488342,25.087616 440.600342,35.770264 437.342682,51.085564 
	C435.733582,58.650593 435.620758,67.189407 439.991821,74.566154 
	C441.299011,76.772255 440.627594,77.954521 439.019928,79.527824 
	C431.874298,86.520790 424.802612,93.591667 417.823730,100.750931 
	C416.249023,102.366356 415.149078,102.662582 412.995026,101.583855 
	C399.332489,94.741829 384.569275,90.809525 369.607025,89.361694 
	C356.746277,88.117218 343.602142,88.297348 330.565033,90.588005 
	C317.464874,92.889748 304.847321,96.514977 292.933044,102.152634 
	C281.992310,107.329636 271.619690,113.714172 262.620026,121.954727 
	C257.184662,126.931602 256.925232,126.815872 251.556824,122.163452 
	C235.109238,107.909515 216.171021,98.468452 195.092773,92.899025 
	C178.762070,88.584045 162.137238,87.954956 145.654343,89.310379 
	C131.969589,90.435699 118.292648,93.466064 105.698006,99.716187 
	C98.685570,103.196121 98.673782,103.175797 93.223305,97.722610 
	C87.097481,91.593758 81.037102,85.397224 74.805130,79.378319 
	C73.246613,77.873085 73.140823,76.832420 73.956635,74.835587 
	C83.514763,51.440189 72.046379,26.790716 47.288506,21.476742 
	C27.193123,17.163511 7.968564,27.001678 1.367348,49.885399 
	C1.000000,35.010757 1.126943,20.019615 0.902393,5.033738 
	C0.852132,1.679489 1.468981,0.897195 4.962085,0.900623 
	C126.374825,1.019763 247.787704,1.000000 369.200562,1.000000 
	C415.667206,1.000000 462.134094,1.062721 508.600067,0.887902 
	C512.568359,0.872972 513.143555,2.021042 513.090088,5.595400 
	C512.873230,20.081697 513.000000,34.573139 513.000000,49.531342 
z"/>
<path fill="#FFFFFF" opacity="1.000000" stroke="none" 
	d="
M297.000000,337.985535 
	C295.457916,347.659302 296.014771,356.946533 296.025726,366.205109 
	C296.041656,379.630890 298.418854,392.758057 301.370361,405.800873 
	C304.250519,418.528290 309.055939,430.590881 314.262268,442.486420 
	C315.222443,444.680176 314.962891,445.935394 313.344879,447.132111 
	C304.138885,453.940918 295.816711,461.974182 285.036316,466.581757 
	C278.252899,469.480988 278.726898,469.630310 275.567078,463.207916 
	C268.880890,449.618134 263.770325,435.499817 259.944519,420.868744 
	C257.326630,410.857147 255.510498,400.719696 253.890335,390.498840 
	C251.648880,376.358643 251.718140,362.167938 252.090164,347.986389 
	C252.572998,329.581238 255.538696,311.479614 260.673492,293.776794 
	C262.770905,286.545746 265.113953,279.385681 267.365265,272.199615 
	C268.928131,267.210968 266.354004,261.244385 261.727020,259.204559 
	C257.200348,257.208954 250.164352,259.888031 248.068558,264.706909 
	C242.474106,277.570312 239.050003,291.146484 236.110947,304.772095 
	C231.733337,325.066895 230.585129,345.682892 230.884476,366.463348 
	C231.179932,386.973511 234.346664,406.979370 239.372116,426.756348 
	C243.321609,442.299011 249.350464,457.123199 255.860779,472.054810 
	C237.892410,472.338654 223.183014,465.254639 209.910217,454.418091 
	C208.272003,453.080566 206.766983,451.467346 204.925522,450.510681 
	C196.900757,446.341675 196.868607,438.022430 195.189026,430.965942 
	C191.622421,415.981354 189.168488,400.792877 187.718170,385.377228 
	C186.885712,376.529022 186.322235,367.523834 186.487518,358.864594 
	C186.713745,347.011566 187.046036,335.011780 188.696045,323.070068 
	C190.806412,307.796570 193.685242,292.773529 197.579941,277.909973 
	C202.803238,257.976013 210.518814,239.035873 219.664948,220.551804 
	C230.546844,198.559784 244.131042,178.514709 259.719482,159.650726 
	C269.309448,148.045609 280.043884,137.558762 291.221222,127.660103 
	C298.382202,121.318298 308.118896,118.669952 317.175293,115.325905 
	C333.108643,109.442566 349.685455,109.301735 366.206177,110.214439 
	C374.467163,110.670815 382.779449,112.539078 391.348419,115.634521 
	C385.244324,118.545525 379.434967,121.151459 373.773468,124.046440 
	C356.155426,133.055328 339.881958,144.032257 324.633759,156.697205 
	C312.049622,167.149414 300.934662,178.936691 290.260529,191.225189 
	C285.948364,196.189529 285.896729,203.320114 290.158569,207.556458 
	C294.074890,211.449356 300.963654,210.785828 305.734650,205.700714 
	C311.695953,199.346939 317.010895,192.338531 323.326294,186.376923 
	C331.880188,178.302185 340.565735,170.288513 350.156647,163.405029 
	C361.544586,155.231812 373.374634,147.712173 385.988525,141.583023 
	C395.774597,136.827957 405.752289,132.454422 416.075073,128.905579 
	C417.975220,128.252319 419.041718,128.953644 420.284454,129.802719 
	C432.997009,138.488129 443.726868,149.196198 453.038116,161.440308 
	C455.510101,164.690887 451.987732,164.609695 451.227142,164.779251 
	C445.099640,166.145248 439.151581,168.036682 433.149231,169.857269 
	C419.396088,174.028748 406.632782,180.163391 394.167847,187.218628 
	C380.370087,195.028244 367.791565,204.547424 356.467102,215.396973 
	C346.015961,225.409836 336.502441,236.528870 328.659760,248.857117 
	C319.149963,263.805969 311.411346,279.610504 305.891327,296.479126 
	C301.513428,309.857574 298.394562,323.499268 297.000000,337.985535 
z"/>
<path fill="#FFFFFF" opacity="1.000000" stroke="none" 
	d="
M429.236542,242.267303 
	C414.230011,250.173569 402.323792,261.115112 391.640106,273.692719 
	C380.724152,286.543793 373.026520,301.084320 367.646057,316.899872 
	C364.682434,325.611298 363.008240,334.643829 361.864441,343.822876 
	C361.082764,350.095978 361.009979,356.320038 361.017365,362.579498 
	C361.030853,374.032166 363.095184,385.236084 366.255707,396.152985 
	C367.124115,399.152618 366.263336,400.402557 364.564758,401.943817 
	C353.971161,411.556213 343.346588,421.134521 332.420380,431.005829 
	C326.611267,418.264862 322.624756,405.262238 319.937439,391.773132 
	C317.351105,378.790863 316.708160,365.721375 317.007080,352.557495 
	C317.329468,338.360565 319.697205,324.490601 323.575897,310.838165 
	C329.067108,291.509674 337.467499,273.594391 348.973846,257.110138 
	C357.979309,244.208740 368.611725,232.896484 380.644958,222.741898 
	C398.113983,208.000137 417.678101,197.195770 439.289337,189.966385 
	C447.383942,187.258575 455.567383,184.893723 464.093689,183.972122 
	C464.733063,183.903000 465.336090,182.432114 466.072174,184.366150 
	C469.903839,194.433426 473.492096,204.543320 475.016937,215.275024 
	C475.520111,218.816299 477.590759,223.021515 475.335419,225.714996 
	C473.217957,228.243851 468.615540,227.165756 465.236877,228.086411 
	C452.850006,231.461731 440.621307,235.325668 429.236542,242.267303 
z"/>
<path fill="#FFFFFF" opacity="1.000000" stroke="none" 
	d="
M75.250519,292.750458 
	C62.113792,280.245850 50.329338,266.981567 40.165459,252.415558 
	C36.354572,246.954117 36.529884,239.785400 37.246975,233.481247 
	C38.070618,226.240387 38.124039,218.930252 39.763084,211.676407 
	C42.039192,201.603165 44.656567,191.777603 49.499283,181.831543 
	C55.250603,194.430481 61.794956,206.036484 69.039101,217.233917 
	C74.679924,225.953064 81.147034,234.080490 87.689545,242.122040 
	C94.706383,250.746628 102.572182,258.641724 110.757202,266.125610 
	C125.384285,279.499756 141.326218,291.170990 158.608231,300.946075 
	C161.396271,302.523041 164.167679,304.148468 167.052750,305.530243 
	C170.981995,307.412109 169.169571,310.974609 168.816269,313.327148 
	C167.033142,325.201202 165.540146,337.082336 166.084152,349.092194 
	C166.308289,354.040222 164.418961,353.229218 161.319580,351.764008 
	C138.509705,340.980896 116.968948,328.055634 97.176086,312.448517 
	C89.588768,306.465729 82.127548,300.147919 75.250519,292.750458 
z"/>
<path fill="#FFFFFF" opacity="1.000000" stroke="none" 
	d="
M63.733810,161.313049 
	C61.934605,156.578751 66.241447,154.839142 68.147690,152.743668 
	C76.301270,143.780701 84.655312,134.900650 95.424393,128.809631 
	C97.438660,127.670341 98.036858,126.328865 99.134064,129.826492 
	C105.658493,150.624741 114.954681,170.119324 127.993828,187.682068 
	C136.886383,199.659698 146.509933,210.918762 157.959351,220.684235 
	C166.633850,228.082932 175.553864,235.024857 185.252014,240.953262 
	C187.482208,242.316544 186.311203,243.931625 185.888351,244.988800 
	C180.723526,257.900940 177.321762,271.349091 173.802414,284.953033 
	C160.327377,277.514557 147.813507,269.332947 136.133987,259.777374 
	C127.554413,252.757996 119.362389,245.359863 111.857445,237.260269 
	C98.164383,222.482376 86.400337,206.302444 76.753601,188.530930 
	C71.995132,179.764679 67.868057,170.764206 63.733810,161.313049 
z"/>
<path fill="#FFFFFF" opacity="1.000000" stroke="none" 
	d="
M167.696259,127.244232 
	C175.197754,144.214966 186.119247,158.267807 199.248810,170.620728 
	C203.715302,174.822983 208.745926,178.521820 213.912598,181.836914 
	C216.019485,183.188797 215.591171,184.351776 214.865585,185.492493 
	C207.783936,196.625824 201.622986,208.252258 195.995178,220.170547 
	C195.040390,222.192490 194.390625,221.439636 192.867264,220.482590 
	C178.940384,211.733047 166.726059,201.157150 155.955215,188.656357 
	C145.004074,175.946289 135.742889,162.280869 128.579803,147.139099 
	C124.532761,138.584198 121.335419,129.714783 118.286842,120.772507 
	C117.356430,118.043373 118.617897,116.716553 120.794098,116.067665 
	C132.796783,112.488785 144.904388,109.538017 157.595383,109.942139 
	C160.259888,110.026978 161.558044,110.568840 162.337936,113.493263 
	C163.567596,118.104141 165.690048,122.476913 167.696259,127.244232 
z"/>
<path fill="#FFFFFF" opacity="1.000000" stroke="none" 
	d="
M391.994751,313.054016 
	C398.600647,298.879791 407.103546,286.490906 418.393524,276.107697 
	C433.918457,261.829651 452.093964,252.661987 472.629517,248.141052 
	C476.440918,247.301987 475.208252,250.745590 474.853088,252.009460 
	C473.209503,257.858459 471.365448,263.676422 469.150909,269.332306 
	C467.050262,274.697327 464.002472,279.707153 462.093842,285.127625 
	C459.757935,291.761780 454.156433,295.146820 449.254883,299.117737 
	C429.642975,315.006012 408.186859,328.002380 385.412323,338.842712 
	C385.148926,338.968048 384.773621,338.858307 383.931274,338.858307 
	C385.376221,329.936676 388.100830,321.522736 391.994751,313.054016 
z"/>
<path fill="#FFFFFF" opacity="1.000000" stroke="none" 
	d="
M85.695786,335.192993 
	C84.917015,332.054352 81.210289,331.243713 80.857529,327.670532 
	C85.312134,328.493958 87.612381,332.123840 90.684601,334.341034 
	C112.536636,350.111420 135.154419,364.547333 160.530243,373.996552 
	C166.169296,376.096344 166.721344,380.488434 166.813477,384.600464 
	C167.070724,396.080383 169.391037,407.235168 170.987610,418.508026 
	C171.079941,419.159912 170.999573,419.836273 170.999573,420.641632 
	C163.524750,416.678497 158.484680,410.024323 152.448944,404.645081 
	C140.198181,393.726929 128.426422,382.217651 117.071190,370.363861 
	C106.293808,359.113281 96.300369,347.111725 85.695786,335.192993 
z"/>
<path fill="#FFFFFF" opacity="1.000000" stroke="none" 
	d="
M232.000595,159.992157 
	C230.555725,162.138855 229.141602,163.923553 227.778412,165.643967 
	C207.427521,152.691177 193.573990,134.401077 184.115768,111.985626 
	C205.242950,116.784912 224.044968,125.508621 239.800690,140.300720 
	C240.404251,140.867386 240.937286,141.659317 241.658463,141.925339 
	C245.362122,143.291611 244.829056,144.717941 242.399033,147.244675 
	C238.675812,151.116074 235.461594,155.476990 232.000595,159.992157 
z"/>
<path fill="#FFFFFF" opacity="1.000000" stroke="none" 
	d="
M459.931152,67.722076 
	C454.720001,56.731705 460.065308,45.030598 469.795502,42.575779 
	C477.793579,40.557957 486.517914,43.486610 490.067017,50.278744 
	C494.222321,58.231018 492.104034,68.560768 484.978577,73.446960 
	C479.126892,77.459648 467.340607,77.307465 462.575073,71.098053 
	C461.777161,70.058380 460.867126,69.104790 459.931152,67.722076 
z"/>
<path fill="#FFFFFF" opacity="1.000000" stroke="none" 
	d="
M43.358070,75.867157 
	C36.603382,76.284523 30.612419,75.938042 25.951290,70.533310 
	C21.624962,65.516800 20.508755,55.511806 24.133327,49.580090 
	C27.686495,43.765228 36.686474,40.350998 43.582737,42.201763 
	C51.061123,44.208752 55.950047,50.488983 56.000004,58.152779 
	C56.060753,67.473015 52.531311,72.553795 43.358070,75.867157 
z"/>
<path fill="#FFFFFF" opacity="1.000000" stroke="none" 
	d="
M417.691772,347.248718 
	C406.746948,359.309479 396.369202,371.658508 384.532166,382.868073 
	C383.662567,378.052032 382.730621,373.543152 382.066681,368.995148 
	C381.585236,365.697144 381.663849,362.936615 385.920563,361.430603 
	C396.484497,357.693054 406.207520,352.051208 416.554749,346.959869 
	C417.152832,346.919312 417.380402,346.918579 417.691772,347.248718 
z"/>
<path fill="#FFFFFF" opacity="1.000000" stroke="none" 
	d="
M79.814606,326.051331 
	C79.178688,326.114197 78.748779,325.826660 78.318871,325.539124 
	C78.969513,324.716034 79.518410,324.962982 79.814606,326.051331 
z"/>
<path fill="#FFFFFF" opacity="1.000000" stroke="none" 
	d="
M417.130402,347.094543 
	C417.206879,346.022888 417.793549,345.805267 418.594635,346.231689 
	C418.631104,346.251068 418.352844,346.861816 417.998413,347.388367 
	C417.628937,347.476074 417.482269,347.372559 417.130402,347.094543 
z"/>
<path fill="#000000" opacity="1.000000" stroke="none" 
	d="
M48.407120,473.000519 
	C53.117287,472.753754 57.407818,472.632782 59.720310,477.236359 
	C61.807152,481.390747 61.909039,485.399109 59.143448,489.542175 
	C55.897480,494.404938 50.979057,493.648438 46.934242,492.664795 
	C43.075138,491.726318 40.848343,488.240021 40.858795,483.441772 
	C40.870621,478.010071 42.863033,474.621765 48.407120,473.000519 
z"/>
<path fill="#000000" opacity="1.000000" stroke="none" 
	d="
M279.426575,223.143829 
	C282.380707,225.953552 285.405548,228.240143 285.066437,232.723679 
	C284.705841,237.491776 282.104187,242.063812 278.276642,242.845505 
	C273.608185,243.798965 269.195221,243.086334 266.040771,239.072067 
	C263.207458,235.466492 263.092194,229.689774 266.107544,226.539658 
	C269.285400,223.219788 272.952423,220.384705 278.065155,222.963898 
	C278.334534,223.099777 278.719971,223.005508 279.426575,223.143829 
z"/>
</svg>